HIERARCHY
ROOT SpineBase
{
  OFFSET 0.000000 0.000000 0.000000
  CHANNELS 6 Xposition Yposition Zposition Zrotation Xrotation Yrotation
  JOINT SpineMid
  {
    OFFSET 0.000000 31.366182 0.000000
    CHANNELS 3 Zrotation Xrotation Yrotation
    JOINT SpineShoulder
    {
      OFFSET -0.186534 23.273433 -0.756365
      CHANNELS 3 Zrotation Xrotation Yrotation
      JOINT Neck
      {
        OFFSET -0.110069 7.707118 -0.600422
        CHANNELS 3 Zrotation Xrotation Yrotation
        JOINT Head
        {
          OFFSET -3.141282 15.186512 -2.143162
          CHANNELS 3 Zrotation Xrotation Yrotation
          End Site
          {
            OFFSET 0 0 0
          }
        }
      }
      JOINT ShoulderLeft
      {
        OFFSET -16.279185 -5.116395 8.740989
        CHANNELS 3 Zrotation Xrotation Yrotation
        JOINT ElbowLeft
        {
          OFFSET -2.880449 -29.053669 2.195070
          CHANNELS 3 Zrotation Xrotation Yrotation
          JOINT WristLeft
          {
            OFFSET -2.126729 -22.962866 -0.223059
            CHANNELS 3 Zrotation Xrotation Yrotation
            JOINT HandLeft
            {
              OFFSET -1.866823 -9.334475 1.629165
              CHANNELS 3 Zrotation Xrotation Yrotation
              JOINT HandTipLeft
              {
                OFFSET 0.004468 -0.163372 -1.056729
                CHANNELS 3 Zrotation Xrotation Yrotation
                End Site
                {
                  OFFSET 0 0 0
                }
              }
              JOINT ThumbLeft
              {
                OFFSET -0.124802 0.655044 -2.049078
                CHANNELS 3 Zrotation Xrotation Yrotation
                End Site
                {
                  OFFSET 0 0 0
                }
              }
            }
          }
        }
      }
      JOINT ShoulderRight
      {
        OFFSET 14.040123 -3.206692 -6.182623
        CHANNELS 3 Zrotation Xrotation Yrotation
        JOINT ElbowRight
        {
          OFFSET 6.331508 -26.714196 0.666810
          CHANNELS 3 Zrotation Xrotation Yrotation
          JOINT WristRight
          {
            OFFSET 1.813468 -24.069678 -6.865726
            CHANNELS 3 Zrotation Xrotation Yrotation
            JOINT HandRight
            {
              OFFSET -1.284224 -7.341518 -2.904196
              CHANNELS 3 Zrotation Xrotation Yrotation
              JOINT HandTipRight
              {
                OFFSET 0.812323 -7.222603 -2.861668
                CHANNELS 3 Zrotation Xrotation Yrotation
                End Site
                {
                  OFFSET 0 0 0
                }
              }
              JOINT ThumbRight
              {
                OFFSET -3.396846 -0.446679 -1.599585
                CHANNELS 3 Zrotation Xrotation Yrotation
                End Site
                {
                  OFFSET 0 0 0
                }
              }
            }
          }
        }
      }
    }
  }
  JOINT HipLeft
  {
    OFFSET -6.966838 0.350908 -0.620303
    CHANNELS 3 Zrotation Xrotation Yrotation
    JOINT KneeLeft
    {
      OFFSET 1.771974 -42.426231 0.769421
      CHANNELS 3 Zrotation Xrotation Yrotation
      JOINT AnkleLeft
      {
        OFFSET 9.166702 -32.935659 8.413834
        CHANNELS 3 Zrotation Xrotation Yrotation
        JOINT FootLeft
        {
          OFFSET -5.209311 -3.604157 -13.247988
          CHANNELS 3 Zrotation Xrotation Yrotation
          End Site
          {
            OFFSET 0 0 0
          }
        }
      }
    }
  }
  JOINT HipRight
  {
    OFFSET 6.382242 1.718539 -6.439733
    CHANNELS 3 Zrotation Xrotation Yrotation
    JOINT KneeRight
    {
      OFFSET 4.998051 -40.665710 -4.354597
      CHANNELS 3 Zrotation Xrotation Yrotation
      JOINT AnkleRight
      {
        OFFSET 6.195764 -35.060553 5.919472
        CHANNELS 3 Zrotation Xrotation Yrotation
        JOINT FootRight
        {
          OFFSET -3.753773 -6.501467 -4.780789
          CHANNELS 3 Zrotation Xrotation Yrotation
          End Site
          {
            OFFSET 0 0 0
          }
        }
      }
    }
  }
}
MOTION
Frames: 6
Frame Time: 0.033333
28.532759 80.566786 327.000999 -0.000000 0.000000 23.554428 -0.000000 0.000000 -23.554428 -0.000000 0.000000 0.000000 -0.000000 0.000000 0.000000 0.000000 0.000000 0.000000 -0.000000 0.000000 0.000000 -0.000000 0.000000 0.000000 -0.000000 0.000000 0.000000 -0.000000 0.000000 0.000000 0.000000 0.000000 0.000000 0.000000 0.000000 0.000000 -0.000000 0.000000 0.000000 -0.000000 0.000000 0.000000 -0.000000 0.000000 0.000000 -0.000000 0.000000 0.000000 0.000000 0.000000 0.000000 0.000000 0.000000 0.000000 -0.000000 0.000000 -23.554428 -0.000000 0.000000 0.000000 -0.000000 0.000000 0.000000 0.000000 0.000000 0.000000 -0.000000 0.000000 -23.554428 -0.000000 0.000000 0.000000 -0.000000 0.000000 0.000000 0.000000 0.000000 0.000000
28.540399 80.556517 326.917988 0.125151 0.018015 23.838282 -0.121755 0.034102 -23.838265 -0.000000 0.000000 0.000000 -0.000000 0.000000 0.000000 0.000000 0.000000 0.000000 -0.000000 0.000000 0.000000 -0.000000 0.000000 0.000000 -0.000000 0.000000 0.000000 -0.000000 0.000000 0.000000 0.000000 0.000000 0.000000 0.000000 0.000000 0.000000 -0.000000 0.000000 0.000000 -0.737951 -2.531863 0.003427 -0.410501 0.661035 0.781254 -1.000814 -3.025950 -0.538786 0.000000 0.000000 0.000000 0.000000 0.000000 0.000000 -0.121755 0.034102 -23.838265 -0.000000 0.000000 0.000000 1.569079 -4.412994 0.803820 0.000000 0.000000 0.000000 -0.121755 0.034102 -23.838265 -0.000000 0.000000 0.000000 -2.395726 8.409244 -2.743906 0.000000 0.000000 0.000000
28.536714 80.544031 326.831721 0.227038 0.016545 24.064726 -0.214052 0.077472 -24.064615 -0.000000 0.000000 0.000000 -0.000000 0.000000 0.000000 0.000000 0.000000 0.000000 -0.000000 0.000000 0.000000 -0.000000 0.000000 0.000000 -0.000000 0.000000 0.000000 -0.000000 0.000000 0.000000 0.000000 0.000000 0.000000 0.000000 0.000000 0.000000 -0.000000 0.000000 0.000000 -1.220709 -4.093322 -0.003988 -0.672407 1.150994 1.276225 -2.220171 -5.198652 -0.724452 0.000000 0.000000 0.000000 0.000000 0.000000 0.000000 -0.214052 0.077472 -24.064615 -0.000000 0.000000 0.000000 3.188030 -8.727881 1.709516 0.000000 0.000000 0.000000 -0.214052 0.077472 -24.064615 -0.000000 0.000000 0.000000 -3.936849 14.668946 -4.585317 0.000000 0.000000 0.000000
28.521704 80.529328 326.742197 0.305593 -0.004433 24.233456 -0.276845 0.129474 -24.233132 -0.000000 0.000000 0.000000 -0.000000 0.000000 0.000000 0.000000 0.000000 0.000000 -0.000000 0.000000 0.000000 -0.000000 0.000000 0.000000 -0.000000 0.000000 0.000000 -0.000000 0.000000 0.000000 0.000000 0.000000 0.000000 0.000000 0.000000 0.000000 -0.000000 0.000000 0.000000 -1.476101 -4.788367 -0.001647 -0.826471 1.494186 1.503392 -3.577253 -6.595474 -0.561688 0.000000 0.000000 0.000000 0.000000 0.000000 0.000000 -0.276845 0.129474 -24.233132 -0.000000 0.000000 0.000000 4.724654 -12.583708 2.627463 0.000000 0.000000 0.000000 -0.276845 0.129474 -24.233132 -0.000000 0.000000 0.000000 -4.949668 19.230639 -5.847454 0.000000 0.000000 0.000000
28.495369 80.512408 326.649418 0.360765 -0.044926 24.344288 -0.310170 0.189644 -24.343633 -0.000000 0.000000 0.000000 0.808588 0.010586 0.116059 0.000000 0.000000 0.000000 -0.000000 0.000000 0.000000 -0.000000 0.000000 0.000000 -0.000000 0.000000 0.000000 -0.000000 0.000000 0.000000 0.000000 0.000000 0.000000 0.000000 0.000000 0.000000 -0.000000 0.000000 0.000000 -1.521501 -4.680642 0.019235 -0.884979 1.727763 1.469461 -5.066156 -7.322614 -0.049324 0.000000 0.000000 0.000000 0.000000 0.000000 0.000000 -0.310170 0.189644 -24.343633 -0.000000 0.000000 0.000000 6.004855 -15.612758 3.421102 0.000000 0.000000 0.000000 -0.310170 0.189644 -24.343633 -0.000000 0.000000 0.000000 -5.622930 22.501817 -6.721184 0.000000 0.000000 0.000000
28.457710 80.493271 326.553382 0.392524 -0.104924 24.397151 -0.314136 0.257688 -24.396085 -0.000000 0.000000 0.000000 0.999565 0.003810 0.141565 0.000000 0.000000 0.000000 -0.000000 0.000000 0.000000 0.695517 0.542192 -0.060294 -0.694977 -0.542884 0.053711 -0.000000 0.000000 0.000000 0.000000 0.000000 0.000000 0.000000 0.000000 0.000000 -0.000000 0.000000 0.000000 -1.365725 -3.796370 0.058795 -0.835643 1.902700 1.166983 -6.733513 -7.486563 0.814873 0.000000 0.000000 0.000000 0.000000 0.000000 0.000000 -0.314136 0.257688 -24.396085 -0.000000 0.000000 0.000000 6.848104 -17.514538 3.937674 0.000000 0.000000 0.000000 -0.314136 0.257688 -24.396085 -0.000000 0.000000 0.000000 -6.065627 24.781944 -7.319199 0.000000 0.000000 0.000000
